# xmcd
#
# Track frame offsets:
#	150
#	16598
#	29327
#	45528
#	63943
#	82320
#	94827
#	111275
#	124022
#	140223
#	158618
#	176995
#
# Disc length: 2528 seconds
#
# Revision: 1
# Processed by: cddbd v1.5.2PL0 Copyright (c) Steve Scherf et al.
# Submitted via: audiograbber 1.83.01
#
DISCID=a009de0c
DTITLE=Sherrie Austin - Chartbuster 20251
DYEAR=1900
DGENRE=Karaoke
TTITLE0=Sherrie Austin (Vocal) - Innocent Man
TTITLE1=Sherrie Austin (Vocal) - Little Bird
TTITLE2=Sherrie Austin (Vocal) - Lucky In Love
TTITLE3=Sherrie Austin (Vocal) - Never Been Kissed
TTITLE4=Sherrie Austin (Vocal) - One Solitary Tear
TTITLE5=Sherrie Austin (Vocal) - Put Your Heart Into It
TTITLE6=Sherrie Austin - Innocent Man
TTITLE7=Sherrie Austin - Little Bird
TTITLE8=Sherrie Austin - Lucky In Love
TTITLE9=Sherrie Austin - Never Been Kissed
TTITLE10=Sherrie Austin - One Solitary Tear
TTITLE11=Sherrie Austin - Put Your Heart Into It
EXTD=
EXTT0=
EXTT1=
EXTT2=
EXTT3=
EXTT4=
EXTT5=
EXTT6=
EXTT7=
EXTT8=
EXTT9=
EXTT10=
EXTT11=
PLAYORDER=
